# xmcd
#
# Track frame offsets:
# 150
# 15232
# 32766
# 48596
# 64160
# 81410
# 96004
# 114007
# 129083
# 142833
# 158613
# 173186
# 197831
#
# Disc length: 4440 seconds
#
#
# Revision: 7
# Processed by: cddbd v1.5.2PL0 Copyright (c) Steve Scherf et al.
# Submitted via: FreeRIP 2.945 
#
DISCID=9911560d
DTITLE=GINO E GENO - A Galera Do Chapéu
DYEAR=2006
DGENRE=Sertanejo
TTITLE0=Agita Aí
TTITLE1=Acidente De Amor
TTITLE2=Bebo Pa Carai
TTITLE3=Cara Boa
TTITLE4=O Gavião
TTITLE5=A Galera Do Chapéu
TTITLE6=A Mulher E A Bebida
TTITLE7=Que Amor É Esse
TTITLE8=Que Bicho Que É
TTITLE9=Saudade Cigana
TTITLE10=Tô Ficando Com Ela
TTITLE11=Uma Notícia Pra Te Dar
TTITLE12=Copy Control
EXTD=
EXTT0=
EXTT1=
EXTT2=
EXTT3=
EXTT4=
EXTT5=
EXTT6=
EXTT7=
EXTT8=
EXTT9=
EXTT10=
EXTT11=
EXTT12=
PLAYORDER=
